<?xml version="1.0" encoding="iso-8859-1"?>
<!-- Generator: Adobe Illustrator 19.0.0, SVG Export Plug-In . SVG Version: 6.00 Build 0)  -->
<svg version="1.1" id="Capa_1" xmlns="http://www.w3.org/2000/svg" xmlns:xlink="http://www.w3.org/1999/xlink" x="0px" y="0px"
	 viewBox="0 0 512.001 512.001" style="enable-background:new 0 0 512.001 512.001;" xml:space="preserve">
<g>
	<g>
		<path d="M162.089,462.168c-1.287-3.936-5.524-6.084-9.459-4.796l-19.859,6.495C127.201,454.949,117.302,449,106.036,449
			c-17.369,0-31.5,14.131-31.5,31.5c0,17.369,14.131,31.5,31.5,31.5s31.5-14.131,31.5-31.5c0-0.801-0.04-1.592-0.099-2.378
			l19.854-6.494C161.229,470.34,163.377,466.105,162.089,462.168z M106.036,497c-9.098,0-16.5-7.402-16.5-16.5
			c0-9.098,7.402-16.5,16.5-16.5s16.5,7.402,16.5,16.5C122.536,489.598,115.135,497,106.036,497z"/>
	</g>
</g>
<g>
	<g>
		<path d="M434.5,264H264v-17h119.5c4.143,0,7.5-3.358,7.5-7.5c0-4.142-3.357-7.5-7.5-7.5h-306c-3.584,0-6.5-2.916-6.5-6.5v-72
			c0-3.584,2.916-6.5,6.5-6.5h356c3.584,0,6.5,2.916,6.5,6.5v72c0,3.584-2.916,6.5-6.5,6.5h-18c-4.143,0-7.5,3.358-7.5,7.5
			c0,4.142,3.357,7.5,7.5,7.5h18c11.855,0,21.5-9.645,21.5-21.5v-72c0-11.855-9.645-21.5-21.5-21.5H264v-17h169.5
			c11.855,0,21.5-9.645,21.5-21.5v-72C455,9.645,445.356,0,433.5,0h-356C65.646,0,56,9.645,56,21.5v10.25c0,4.142,3.357,7.5,7.5,7.5
			s7.5-3.358,7.5-7.5V21.5c0-3.584,2.916-6.5,6.5-6.5h356c3.584,0,6.5,2.916,6.5,6.5v72c0,3.584-2.916,6.5-6.5,6.5h-356
			c-3.584,0-6.5-2.916-6.5-6.5V64c0-4.142-3.357-7.5-7.5-7.5S56,59.858,56,64v29.5c0,11.855,9.645,21.5,21.5,21.5H249v17H77.5
			c-11.855,0-21.5,9.645-21.5,21.5v72c0,11.855,9.645,21.5,21.5,21.5H249v17H78.5c-11.855,0-21.5,9.645-21.5,21.5v72
			c0,11.855,9.645,21.5,21.5,21.5h17c4.143,0,7.5-3.358,7.5-7.5c0-4.142-3.357-7.5-7.5-7.5h-17c-3.584,0-6.5-2.916-6.5-6.5v-72
			c0-3.584,2.916-6.5,6.5-6.5h356c3.584,0,6.5,2.916,6.5,6.5v72c0,3.584-2.916,6.5-6.5,6.5H331.755
			c-0.015-3.974-1.573-7.876-4.474-10.777l-8.504-8.504c-1.516-1.515-3.306-2.656-5.235-3.41c3.488-1.408,5.958-4.822,5.958-8.808
			v-26c0-5.238-4.262-9.5-9.5-9.5h-66c-5.238,0-9.5,4.262-9.5,9.5v25.838c-3.171,7.194-4.005,10.373-4.007,12.471l-8.004,3.315
			c-1.641-1.638-4.914-3.485-14.093-6.916c-5.595-2.094-11.946-0.715-16.175,3.511l-8.502,8.502
			c-2.901,2.901-4.46,6.804-4.474,10.777H127.5c-4.143,0-7.5,3.358-7.5,7.5c0,4.142,3.357,7.5,7.5,7.5h56.707
			c1.157,2.333,2.067,3.636,2.918,4.489l-3.316,8.005c-2.318,0.002-5.941,1.012-14.855,5.075c-5.438,2.479-8.953,7.943-8.953,13.919
			v12.024c0,5.976,3.515,11.44,8.954,13.92c8.914,4.063,12.536,5.072,14.854,5.074l3.316,8.005
			c-1.639,1.641-3.486,4.915-6.916,14.092c-2.093,5.6-0.715,11.948,3.511,16.174l8.504,8.504c4.227,4.225,10.575,5.603,16.173,3.51
			c9.178-3.431,12.452-5.278,14.093-6.916l8.004,3.315c0.002,2.318,1.01,5.938,5.075,14.856c2.479,5.439,7.943,8.954,13.92,8.954
			h12.023c5.977,0,11.441-3.515,13.92-8.953c4.065-8.918,5.073-12.539,5.075-14.856l8.004-3.315
			c1.641,1.638,4.914,3.485,14.093,6.916c5.596,2.093,11.946,0.715,16.175-3.511l8.502-8.502c4.226-4.226,5.604-10.574,3.511-16.173
			c-3.43-9.177-5.277-12.452-6.916-14.093l3.316-8.005c2.318-0.002,5.941-1.012,14.855-5.075c5.438-2.479,8.953-7.943,8.953-13.919
			v-12.024c0-5.976-3.515-11.44-8.954-13.92c-8.914-4.063-12.536-5.072-14.854-5.074l-3.316-8.005
			c0.851-0.853,1.761-2.156,2.918-4.489H434.5c11.855,0,21.5-9.645,21.5-21.5v-72C456,273.645,446.356,264,434.5,264z M249.5,312h55
			v15h-30.848c-2.857-3.722-7.331-6-12.14-6H249.5V312z M300.522,342c-7.597,2.93-10.502,4.618-12.011,6.125l-8.004-3.315
			c-0.001-0.752-0.11-1.646-0.393-2.81H300.522z M324.416,407.375l2.817-0.689c1.31,0.42,4.046,1.459,8.592,3.531
			c0.105,0.048,0.176,0.157,0.176,0.271v12.024c0,0.114-0.07,0.223-0.175,0.271c-4.546,2.072-7.283,3.111-8.593,3.531l-2.817-0.689
			c-3.592-0.878-7.293,0.996-8.71,4.416l-8.06,19.456c-1.417,3.419-0.127,7.36,3.036,9.281l2.48,1.505
			c0.629,1.224,1.83,3.894,3.578,8.572c0.041,0.11,0.015,0.233-0.067,0.315l-8.5,8.501c-0.084,0.083-0.207,0.11-0.317,0.069
			c-4.68-1.749-7.35-2.95-8.573-3.579l-1.505-2.479c-1.922-3.164-5.862-4.453-9.281-3.037l-19.456,8.059
			c-3.42,1.417-5.295,5.116-4.415,8.711l0.689,2.816c-0.421,1.311-1.46,4.048-3.531,8.593c-0.048,0.105-0.157,0.175-0.271,0.175
			H249.49c-0.114,0-0.224-0.07-0.271-0.176c-2.071-4.544-3.11-7.281-3.531-8.592l0.689-2.816c0.88-3.595-0.995-7.295-4.415-8.711
			l-19.456-8.059c-3.422-1.417-7.36-0.126-9.281,3.037l-1.505,2.479c-1.224,0.629-3.894,1.83-8.573,3.58
			c-0.108,0.041-0.234,0.014-0.315-0.068l-8.502-8.502c-0.082-0.082-0.108-0.206-0.067-0.316c1.748-4.679,2.949-7.348,3.578-8.572
			l2.48-1.505c3.163-1.921,4.453-5.862,3.036-9.281l-8.06-19.456c-1.416-3.419-5.112-5.295-8.71-4.416l-2.817,0.689
			c-1.31-0.42-4.046-1.459-8.592-3.531c-0.105-0.048-0.176-0.157-0.176-0.271v-12.024c0-0.114,0.07-0.223,0.175-0.271
			c4.546-2.072,7.283-3.111,8.593-3.531l2.817,0.689c3.594,0.878,7.294-0.996,8.71-4.416l8.06-19.456
			c1.417-3.419,0.127-7.36-3.036-9.281l-2.48-1.505c-0.393-0.765-1.01-2.094-1.843-4.126c-0.002-0.005-0.004-0.01-0.006-0.015
			c-0.499-1.217-1.076-2.683-1.729-4.431c-0.041-0.11-0.015-0.233,0.067-0.315l8.5-8.501c0.084-0.083,0.207-0.11,0.317-0.069
			c4.68,1.749,7.35,2.95,8.573,3.579l1.505,2.479c1.921,3.164,5.864,4.453,9.281,3.037l19.456-8.059
			c3.42-1.417,5.295-5.116,4.415-8.711l-0.689-2.816c0.421-1.311,1.46-4.048,3.531-8.593c0.048-0.105,0.157-0.175,0.271-0.175
			h12.023c0.114,0,0.224,0.07,0.271,0.176c2.071,4.544,3.11,7.281,3.531,8.592l-0.689,2.816c-0.88,3.595,0.995,7.295,4.415,8.711
			l19.456,8.059c3.421,1.416,7.359,0.126,9.281-3.037l1.505-2.479c1.224-0.629,3.894-1.83,8.573-3.58
			c0.109-0.04,0.234-0.014,0.315,0.068l8.502,8.502c0.082,0.082,0.108,0.206,0.067,0.316c-0.653,1.747-1.229,3.213-1.728,4.43
			c-0.002,0.006-0.005,0.012-0.007,0.018c-0.833,2.031-1.45,3.36-1.843,4.124l-2.48,1.505c-3.163,1.921-4.453,5.862-3.036,9.281
			l8.06,19.456C317.122,406.379,320.815,408.252,324.416,407.375z"/>
	</g>
</g>
<g>
	<g>
		<path d="M125,34c-12.406,0-22.5,10.093-22.5,22.5S112.594,79,125,79s22.5-10.093,22.5-22.5S137.406,34,125,34z M125,64
			c-4.136,0-7.5-3.364-7.5-7.5s3.364-7.5,7.5-7.5s7.5,3.364,7.5,7.5S129.136,64,125,64z"/>
	</g>
</g>
<g>
	<g>
		<path d="M125,167c-12.406,0-22.5,10.093-22.5,22.5S112.594,212,125,212s22.5-10.093,22.5-22.5S137.406,167,125,167z M125,197
			c-4.136,0-7.5-3.364-7.5-7.5s3.364-7.5,7.5-7.5s7.5,3.364,7.5,7.5S129.136,197,125,197z"/>
	</g>
</g>
<g>
	<g>
		<path d="M125,299c-12.406,0-22.5,10.093-22.5,22.5c0,12.407,10.094,22.5,22.5,22.5s22.5-10.093,22.5-22.5
			C147.5,309.093,137.406,299,125,299z M125,329c-4.136,0-7.5-3.364-7.5-7.5s3.364-7.5,7.5-7.5s7.5,3.364,7.5,7.5
			S129.136,329,125,329z"/>
	</g>
</g>
<g>
	<g>
		<path d="M310,35h-66c-5.238,0-9.5,4.262-9.5,9.5v26c0,5.238,4.262,9.5,9.5,9.5h66c5.238,0,9.5-4.262,9.5-9.5v-26
			C319.5,39.262,315.239,35,310,35z M304.5,65h-55V50h55V65z"/>
	</g>
</g>
<g>
	<g>
		<path d="M406,35h-66c-5.238,0-9.5,4.262-9.5,9.5v26c0,5.238,4.262,9.5,9.5,9.5h66c5.238,0,9.5-4.262,9.5-9.5v-26
			C415.5,39.262,411.239,35,406,35z M400.5,65h-55V50h55V65z"/>
	</g>
</g>
<g>
	<g>
		<path d="M310,167h-66c-5.238,0-9.5,4.262-9.5,9.5v26c0,5.238,4.262,9.5,9.5,9.5h66c5.238,0,9.5-4.262,9.5-9.5v-26
			C319.5,171.262,315.239,167,310,167z M304.5,197h-55v-15h55V197z"/>
	</g>
</g>
<g>
	<g>
		<path d="M406,167h-66c-5.238,0-9.5,4.262-9.5,9.5v26c0,5.238,4.262,9.5,9.5,9.5h66c5.238,0,9.5-4.262,9.5-9.5v-26
			C415.5,171.262,411.239,167,406,167z M400.5,197h-55v-15h55V197z"/>
	</g>
</g>
<g>
	<g>
		<path d="M406,297h-66c-5.238,0-9.5,4.262-9.5,9.5v26c0,5.238,4.262,9.5,9.5,9.5h66c5.238,0,9.5-4.262,9.5-9.5v-26
			C415.5,301.262,411.239,297,406,297z M400.5,327h-55v-15h55V327z"/>
	</g>
</g>
<g>
	<g>
		<path d="M404.964,449c-11.266,0-21.165,5.949-26.733,14.867l-19.859-6.495c-3.939-1.288-8.172,0.86-9.459,4.797
			c-1.288,3.937,0.859,8.172,4.797,9.46l19.854,6.494c-0.059,0.786-0.099,1.577-0.099,2.378c0,17.369,14.131,31.5,31.5,31.5
			c17.369,0,31.5-14.131,31.5-31.5C436.465,463.132,422.333,449,404.964,449z M404.964,497c-9.098,0-16.5-7.402-16.5-16.5
			c0-9.098,7.402-16.5,16.5-16.5c9.098,0,16.5,7.402,16.5,16.5C421.464,489.598,414.063,497,404.964,497z"/>
	</g>
</g>
<g>
	<g>
		<path d="M255.5,365c-28.397,0-51.5,23.103-51.5,51.5c0,28.397,23.103,51.5,51.5,51.5c28.397,0,51.5-23.103,51.5-51.5
			C307,388.103,283.898,365,255.5,365z M255.5,453c-20.126,0-36.5-16.374-36.5-36.5c0-20.126,16.374-36.5,36.5-36.5
			c20.126,0,36.5,16.374,36.5,36.5C292,436.626,275.627,453,255.5,453z"/>
	</g>
</g>
<g>
	<g>
		<path d="M255.5,392.689c-12.406,0-22.5,10.093-22.5,22.5c0,12.407,10.094,22.5,22.5,22.5s22.5-10.093,22.5-22.5
			C278,402.782,267.906,392.689,255.5,392.689z M255.5,422.689c-4.136,0-7.5-3.364-7.5-7.5s3.364-7.5,7.5-7.5s7.5,3.364,7.5,7.5
			S259.636,422.689,255.5,422.689z"/>
	</g>
</g>
<g>
</g>
<g>
</g>
<g>
</g>
<g>
</g>
<g>
</g>
<g>
</g>
<g>
</g>
<g>
</g>
<g>
</g>
<g>
</g>
<g>
</g>
<g>
</g>
<g>
</g>
<g>
</g>
<g>
</g>
</svg>
