<svg height="496pt" viewBox="0 0 496 496" width="496pt" xmlns="http://www.w3.org/2000/svg"><path d="m360 464c13.230469 0 24-10.769531 24-24s-10.769531-24-24-24-24 10.769531-24 24 10.769531 24 24 24zm0-32c4.414062 0 8 3.59375 8 8s-3.585938 8-8 8-8-3.59375-8-8 3.585938-8 8-8zm0 0"/><path d="m224 416h-112v48h112zm-48 16v16h-16v-16zm-48 0h16v16h-16zm80 16h-16v-16h16zm0 0"/><path d="m112 176h112v-48h-112zm48-16v-16h16v16zm48 0h-16v-16h16zm-80-16h16v16h-16zm0 0"/><path d="m360 272c-13.230469 0-24 10.769531-24 24s10.769531 24 24 24 24-10.769531 24-24-10.769531-24-24-24zm0 32c-4.414062 0-8-3.59375-8-8s3.585938-8 8-8 8 3.59375 8 8-3.585938 8-8 8zm0 0"/><path d="m112 320h112v-48h-112zm48-16v-16h16v16zm48 0h-16v-16h16zm-80-16h16v16h-16zm0 0"/><path d="m368 56c-39.703125 0-72 32.304688-72 72s32.296875 72 72 72 72-32.304688 72-72-32.296875-72-72-72zm0 128c-30.871094 0-56-25.121094-56-56s25.128906-56 56-56 56 25.121094 56 56-25.128906 56-56 56zm0 0"/><path d="m368 88c-22.054688 0-40 17.945312-40 40s17.945312 40 40 40 40-17.945312 40-40-17.945312-40-40-40zm0 64c-13.230469 0-24-10.769531-24-24s10.769531-24 24-24 24 10.769531 24 24-10.769531 24-24 24zm0 0"/><path d="m496 158.167969v-60.328125l-31.472656-8.304688c-.34375-.863281-.703125-1.726562-1.078125-2.589844l16.382812-28.128906-42.65625-42.65625-28.128906 16.382813c-.855469-.367188-1.726563-.726563-2.589844-1.078125l-8.289062-31.464844h-60.328125l-8.296875 31.464844c-.863281.34375-1.734375.703125-2.589844 1.078125l-28.128906-16.382813-42.65625 42.65625 16.382812 28.128906c-.375.863282-.734375 1.726563-1.078125 2.589844l-24.511718 6.464844h-142.960938c-13.230469 0-24 10.769531-24 24v64c0 13.230469 10.769531 24 24 24h8v32h-8c-13.230469 0-24 10.769531-24 24v8h-48v-129.472656c9.289062-3.3125 16-12.113282 16-22.527344 0-13.230469-10.769531-24-24-24s-24 10.769531-24 24c0 10.414062 6.710938 19.214844 16 22.527344v145.472656h64v16h-64v145.472656c-9.289062 3.3125-16 12.113282-16 22.527344 0 13.230469 10.769531 24 24 24s24-10.769531 24-24c0-10.414062-6.710938-19.214844-16-22.527344v-129.472656h48v8c0 13.230469 10.769531 24 24 24h8v32h-8c-13.230469 0-24 10.769531-24 24v64c0 13.230469 10.769531 24 24 24h288c13.230469 0 24-10.769531 24-24v-64c0-13.230469-10.769531-24-24-24h-8v-32h8c13.230469 0 24-10.769531 24-24v-64c0-9.726562-5.839844-18.089844-14.183594-21.847656l4.648438-17.617188c.863281-.34375 1.734375-.703125 2.589844-1.078125l28.128906 16.382813 42.65625-42.65625-16.382813-28.128906c.375-.863282.734375-1.726563 1.078125-2.589844zm-472-46.167969c4.414062 0 8 3.59375 8 8s-3.585938 8-8 8-8-3.59375-8-8 3.585938-8 8-8zm0 368c-4.414062 0-8-3.59375-8-8s3.585938-8 8-8 8 3.59375 8 8-3.585938 8-8 8zm72-296v-64c0-4.40625 3.585938-8 8-8h136v46.167969l31.472656 8.304687c.34375.863282.703125 1.726563 1.078125 2.589844l-13.367187 22.9375h-155.183594c-4.414062 0-8-3.59375-8-8zm32 24h138.984375l31.839844 31.839844 28.128906-16.382813c.855469.367188 1.726563.726563 2.589844 1.078125l4.074219 15.464844h-205.617188zm272 200v64c0 4.40625-3.585938 8-8 8h-288c-4.414062 0-8-3.59375-8-8v-64c0-4.40625 3.585938-8 8-8h288c4.414062 0 8 3.59375 8 8zm-32-24h-240v-32h240zm32-56c0 4.40625-3.585938 8-8 8h-288c-4.414062 0-8-3.59375-8-8v-64c0-4.40625 3.585938-8 8-8h288c4.414062 0 8 3.59375 8 8zm59.808594-133.414062-25.214844 25.222656-24.722656-14.402344-3.832032 1.839844c-2.902343 1.402344-5.902343 2.648437-8.902343 3.699218l-4.007813 1.40625-7.289062 27.648438h-35.679688l-7.289062-27.640625-4.007813-1.40625c-3-1.058594-6-2.304687-8.902343-3.695313l-3.832032-1.84375-24.722656 14.402344-25.214844-25.222656 14.394532-24.714844-1.832032-3.824218c-1.410156-2.925782-2.648437-5.925782-3.707031-8.910157l-1.40625-4-27.640625-7.3125v-35.671875l27.640625-7.296875 1.40625-4c1.058594-2.992187 2.296875-5.992187 3.707031-8.910156l1.832032-3.824219-14.394532-24.714844 25.214844-25.222656 24.722656 14.402344 3.832032-1.839844c2.902343-1.402344 5.902343-2.648437 8.902343-3.699218l4.007813-1.40625 7.296875-27.648438h35.671875l7.289062 27.640625 4.007813 1.40625c3 1.058594 6 2.304687 8.902343 3.695313l3.832032 1.84375 24.722656-14.402344 25.214844 25.222656-14.394532 24.714844 1.832032 3.824218c1.410156 2.925782 2.648437 5.925782 3.707031 8.910157l1.40625 4 27.640625 7.3125v35.671875l-27.640625 7.296875-1.40625 4c-1.058594 2.992187-2.296875 5.992187-3.707031 8.910156l-1.832032 3.824219zm0 0"/></svg>