<?xml version="1.0" encoding="iso-8859-1"?>
<!-- Generator: Adobe Illustrator 19.0.0, SVG Export Plug-In . SVG Version: 6.00 Build 0)  -->
<svg version="1.1" id="Capa_1" xmlns="http://www.w3.org/2000/svg" xmlns:xlink="http://www.w3.org/1999/xlink" x="0px" y="0px"
	 viewBox="0 0 512 512" style="enable-background:new 0 0 512 512;" xml:space="preserve">
<g>
	<g>
		<path d="M476.567,410.614H35.432C15.895,410.614,0,426.509,0,446.046v58.35C0,508.595,3.405,512,7.604,512h496.792
			c4.199,0,7.604-3.405,7.604-7.604v-58.35C512,426.509,496.105,410.614,476.567,410.614z M496.792,496.792H15.208v-50.746
			c0-11.153,9.073-20.225,20.224-20.225h441.134c11.152,0,20.226,9.073,20.226,20.225V496.792z"/>
	</g>
</g>
<g>
	<g>
		<path d="M239.984,170.368H81.457c-31.63,0-57.364,25.738-57.364,57.374v71.111c0,4.199,3.405,7.604,7.604,7.604
			s7.604-3.405,7.604-7.604v-71.111c0-23.251,18.912-42.167,42.156-42.167h158.527c4.199,0,7.604-3.405,7.604-7.604
			S244.183,170.368,239.984,170.368z"/>
	</g>
</g>
<g>
	<g>
		<path d="M462.861,180.331c-3.467-2.369-8.2-1.478-10.567,1.989c-2.368,3.467-1.478,8.199,1.989,10.568
			c11.53,7.876,18.413,20.906,18.413,34.854v145.672c0,7.245-5.895,13.14-13.14,13.14H52.44c-7.245,0-13.14-5.895-13.14-13.14
			v-49.213c0-4.199-3.405-7.604-7.604-7.604s-7.604,3.405-7.604,7.604v49.213c0,15.632,12.717,28.349,28.348,28.349h407.116
			c15.631,0,28.348-12.717,28.348-28.348V227.743C487.904,208.767,478.543,191.043,462.861,180.331z"/>
	</g>
</g>
<g>
	<g>
		<path d="M211.223,0H55.793C39.207,0,25.714,13.493,25.714,30.079v57.722c0,16.586,13.493,30.079,30.079,30.079h155.43
			c16.586,0,30.079-13.494,30.079-30.079V30.079C241.302,13.493,227.809,0,211.223,0z M226.094,87.801
			c0,8.2-6.671,14.871-14.871,14.871H55.793c-8.2,0-14.871-6.671-14.871-14.871V30.079c0-8.2,6.671-14.871,14.871-14.871h155.43
			c8.2,0,14.871,6.671,14.871,14.871V87.801z"/>
	</g>
</g>
<g>
	<g>
		<path d="M203.282,30.416H63.733c-4.199,0-7.604,3.405-7.604,7.604v41.841c0,4.199,3.405,7.604,7.604,7.604h139.549
			c4.199,0,7.604-3.405,7.604-7.604V38.02C210.886,33.82,207.482,30.416,203.282,30.416z M195.678,72.257H71.337V45.624h124.341
			V72.257z"/>
	</g>
</g>
<g>
	<g>
		<path d="M154.799,120.922c-4.199,0-7.604,3.405-7.604,7.604v31.2c0,4.199,3.405,7.604,7.604,7.604
			c4.199,0,7.604-3.405,7.604-7.604v-31.2C162.403,124.327,158.999,120.922,154.799,120.922z"/>
	</g>
</g>
<g>
	<g>
		<path d="M112.217,120.922c-4.199,0-7.604,3.405-7.604,7.604v31.2c0,4.199,3.405,7.604,7.604,7.604s7.604-3.405,7.604-7.604v-31.2
			C119.821,124.327,116.417,120.922,112.217,120.922z"/>
	</g>
</g>
<g>
	<g>
		<path d="M436.469,206.085c4.199,0,7.604-3.405,7.604-7.604V145.75c0-18.162-14.776-32.938-32.938-32.938H287.421
			c-18.162,0-32.938,14.776-32.938,32.938v183.272c0,18.162,14.776,32.938,32.938,32.938h123.714
			c18.162,0,32.938-14.776,32.938-32.938V223.829c0-4.199-3.405-7.604-7.604-7.604c-4.199,0-7.604,3.405-7.604,7.604v105.192
			c0,9.777-7.954,17.73-17.73,17.73H287.421c-9.777,0-17.73-7.954-17.73-17.73V145.75c0-9.777,7.954-17.73,17.73-17.73h123.714
			c9.777,0,17.73,7.954,17.73,17.73v52.731C428.865,202.68,432.27,206.085,436.469,206.085z"/>
	</g>
</g>
<g>
	<g>
		<path d="M406.055,143.227H292.502c-4.199,0-7.604,3.405-7.604,7.604v74.012c0,4.199,3.405,7.604,7.604,7.604h113.552
			c4.199,0,7.604-3.405,7.604-7.604v-74.012C413.659,146.632,410.254,143.227,406.055,143.227z M398.451,217.239h-98.345v-58.804
			h98.345V217.239z"/>
	</g>
</g>
<g>
	<g>
		<path d="M312.778,254.753h-20.277c-4.199,0-7.604,3.405-7.604,7.604c0,4.199,3.405,7.604,7.604,7.604h20.277
			c4.199,0,7.604-3.405,7.604-7.604S316.979,254.753,312.778,254.753z"/>
	</g>
</g>
<g>
	<g>
		<path d="M406.055,254.753h-20.277c-4.199,0-7.604,3.405-7.604,7.604c0,4.199,3.405,7.604,7.604,7.604h20.277
			c4.199,0,7.604-3.405,7.604-7.604S410.254,254.753,406.055,254.753z"/>
	</g>
</g>
<g>
	<g>
		<path d="M359.416,254.753H339.14c-4.199,0-7.604,3.405-7.604,7.604c0,4.199,3.405,7.604,7.604,7.604h20.276
			c4.199,0,7.604-3.405,7.604-7.604S363.616,254.753,359.416,254.753z"/>
	</g>
</g>
<g>
	<g>
		<path d="M312.778,309.501h-20.277c-4.199,0-7.604,3.405-7.604,7.604s3.405,7.604,7.604,7.604h20.277
			c4.199,0,7.604-3.405,7.604-7.604S316.979,309.501,312.778,309.501z"/>
	</g>
</g>
<g>
	<g>
		<path d="M406.055,309.501h-20.277c-4.199,0-7.604,3.405-7.604,7.604s3.405,7.604,7.604,7.604h20.277
			c4.199,0,7.604-3.405,7.604-7.604S410.254,309.501,406.055,309.501z"/>
	</g>
</g>
<g>
	<g>
		<path d="M359.416,309.501H339.14c-4.199,0-7.604,3.405-7.604,7.604s3.405,7.604,7.604,7.604h20.276
			c4.199,0,7.604-3.405,7.604-7.604S363.616,309.501,359.416,309.501z"/>
	</g>
</g>
<g>
	<g>
		<path d="M312.778,282.127h-20.277c-4.199,0-7.604,3.405-7.604,7.604c0,4.199,3.405,7.604,7.604,7.604h20.277
			c4.199,0,7.604-3.405,7.604-7.604C320.382,285.532,316.979,282.127,312.778,282.127z"/>
	</g>
</g>
<g>
	<g>
		<path d="M406.055,282.127h-20.277c-4.199,0-7.604,3.405-7.604,7.604c0,4.199,3.405,7.604,7.604,7.604h20.277
			c4.199,0,7.604-3.405,7.604-7.604C413.659,285.532,410.254,282.127,406.055,282.127z"/>
	</g>
</g>
<g>
	<g>
		<path d="M359.416,282.127H339.14c-4.199,0-7.604,3.405-7.604,7.604c0,4.199,3.405,7.604,7.604,7.604h20.276
			c4.199,0,7.604-3.405,7.604-7.604C367.02,285.532,363.616,282.127,359.416,282.127z"/>
	</g>
</g>
<g>
	<g>
		<path d="M213.421,216.225H66.411c-4.199,0-7.604,3.405-7.604,7.604s3.405,7.604,7.604,7.604h15.208v113.046
			c0,2.657,1.387,5.121,3.658,6.5c2.27,1.378,5.097,1.473,7.454,0.246l21.839-11.356l21.839,11.356
			c1.099,0.572,2.303,0.858,3.508,0.858c1.205,0,2.408-0.286,3.508-0.858l21.839-11.356l21.839,11.356
			c2.357,1.226,5.184,1.133,7.454-0.246c2.271-1.379,3.658-3.844,3.658-6.5V231.433h15.208c4.199,0,7.604-3.405,7.604-7.604
			S217.62,216.225,213.421,216.225z M183.005,331.953l-14.235-7.402c-2.199-1.144-4.817-1.144-7.016,0l-21.839,11.356
			l-21.839-11.356c-1.099-0.572-2.304-0.858-3.508-0.858s-2.408,0.286-3.508,0.858l-14.235,7.402v-100.52h86.178V331.953z"/>
	</g>
</g>
<g>
	<g>
		<path d="M148.533,246.641h-37.512c-4.199,0-7.604,3.405-7.604,7.604c0,4.199,3.405,7.604,7.604,7.604h37.512
			c4.199,0,7.604-3.405,7.604-7.604C156.137,250.046,152.732,246.641,148.533,246.641z"/>
	</g>
</g>
<g>
	<g>
		<path d="M163.742,271.481h-52.721c-4.199,0-7.604,3.405-7.604,7.604c0,4.199,3.405,7.604,7.604,7.604h52.721
			c4.199,0,7.604-3.405,7.604-7.604C171.346,274.885,167.941,271.481,163.742,271.481z"/>
	</g>
</g>
<g>
</g>
<g>
</g>
<g>
</g>
<g>
</g>
<g>
</g>
<g>
</g>
<g>
</g>
<g>
</g>
<g>
</g>
<g>
</g>
<g>
</g>
<g>
</g>
<g>
</g>
<g>
</g>
<g>
</g>
</svg>
