<svg id="Layer_5" enable-background="new 0 0 64 64" height="512" viewBox="0 0 64 64" width="512" xmlns="http://www.w3.org/2000/svg"><path d="m51 25c6.617 0 12-5.383 12-12s-5.383-12-12-12-12 5.383-12 12 5.383 12 12 12zm-8.647-7h3.48c.672 1.955 1.643 3.505 2.518 4.633-2.553-.704-4.697-2.391-5.998-4.633zm-1.353-5c0-1.045.162-2.052.461-3h3.841c-.185.934-.302 1.93-.302 3s.117 2.066.303 3h-3.841c-.3-.948-.462-1.955-.462-3zm10.002-9.63c.776.79 2.104 2.367 3.018 4.63h-6.034c.916-2.256 2.242-3.837 3.016-4.63zm3.647 6.63c.214.923.351 1.92.351 3 0 1.079-.138 2.076-.354 3h-7.296c-.213-.923-.35-1.92-.35-3 0-1.079.138-2.076.354-3zm6.351 3c0 1.045-.162 2.052-.461 3h-3.841c.185-.934.302-1.93.302-3s-.117-2.066-.303-3h3.841c.3.948.462 1.955.462 3zm-10.002 9.63c-.776-.79-2.104-2.367-3.018-4.63h6.034c-.916 2.257-2.243 3.837-3.016 4.63zm2.651.003c.875-1.128 1.846-2.677 2.518-4.633h3.48c-1.301 2.242-3.445 3.929-5.998 4.633zm5.998-14.633h-3.48c-.672-1.955-1.643-3.505-2.518-4.633 2.553.704 4.697 2.391 5.998 4.633zm-11.296-4.633c-.875 1.128-1.846 2.678-2.518 4.633h-3.48c1.301-2.242 3.445-3.929 5.998-4.633z"/><path d="m48 12h2v2h-2z"/><path d="m52 12h2v2h-2z"/><path d="m55 32c0-2.757-2.243-5-5-5h-9v-1c0-5.365-3.863-9.838-8.951-10.801 1.799-1.469 2.951-3.701 2.951-6.199 0-4.411-3.589-8-8-8s-8 3.589-8 8c0 2.357 1.031 4.472 2.658 5.938-1.642-.21-3.174-.992-4.298-2.229l-6.794-7.473c-.714-.786-1.732-1.236-2.793-1.236-2.08 0-3.773 1.693-3.773 3.773v.138c0 .956.358 1.868 1.008 2.567l10.121 10.899c1.206 1.3 1.871 2.992 1.871 4.765v6.858h-16v30h62v-30h-8zm-28 15c-1.103 0-2-.897-2-2h29.829c-.413 1.164-1.525 2-2.829 2zm26-15v11h-26v-11c0-1.654 1.346-3 3-3h20c1.654 0 3 1.346 3 3zm-32-23c0-3.309 2.691-6 6-6s6 2.691 6 6-2.691 6-6 6-6-2.691-6-6zm-4.405 11.017-10.121-10.9c-.306-.328-.474-.757-.474-1.206v-.138c0-.978.795-1.773 1.773-1.773.499 0 .977.211 1.312.581l6.794 7.474c1.703 1.871 4.13 2.945 6.66 2.945h3.461 4c4.962 0 9 4.038 9 9v1h-3v-4h-2v4h-4c-2.757 0-5 2.243-5 5v1h-6v-6.858c0-2.279-.854-4.454-2.405-6.125zm-13.595 40.983v-2h58v2zm58-26v22h-58v-22h22v8h-2v2c0 2.206 1.794 4 4 4h12v1c0 1.654-1.346 3-3 3h-19c-1.654 0-3-1.346-3-3v-3c1.654 0 3-1.346 3-3v-3c0-2.206-1.794-4-4-4s-4 1.794-4 4v3c0 1.654 1.346 3 3 3v3c0 2.757 2.243 5 5 5h19c2.757 0 5-2.243 5-5v-1h11c2.757 0 5-2.243 5-5v-1h-2v-8zm-49 10c-.551 0-1-.448-1-1v-3c0-1.103.897-2 2-2s2 .897 2 2v3c0 .552-.449 1-1 1z"/><path d="m40 39c2.206 0 4-1.794 4-4s-1.794-4-4-4-4 1.794-4 4 1.794 4 4 4zm0-6c1.103 0 2 .897 2 2s-.897 2-2 2-2-.897-2-2 .897-2 2-2z"/></svg>